<svg xmlns="http://www.w3.org/2000/svg" width="1652" height="443" fill="none"><path fill="#000" d="M1644.17 250.681c-5.84-18.264-22.98-61.288-54.63-66.56-9.6-1.6-17.33.753-24.77 3.107-8.57 2.636-15.91 4.895-25.89 1.412-9.61-3.295-24.11-13.274-24.77-27.208-.48-10.167 6.78-19.582 13.84-24.948 6.97-5.366 14.97-7.908 19.5-6.308 2.54.942 3.57 3.107 5.65 8.379 2.16 5.743 4.89 12.804 12.71 17.888 16.11 10.45 40.03 3.2 55.47-7.909 27.13-19.582 27.5-53.944 27.5-57.804-.28-23.16-11.68-46.32-28.44-57.805-14.79-10.074-36.07-12.804-59.8-7.626-35.23 7.72-68.75 30.691-88.63 60.44-18.17-9.037-38.52-6.024-48.69-4.424-22.79 3.483-44.17 14.31-63.47 32.386a145 145 0 0 0-13.66 14.781c-1.98-4.802-5.37-9.415-11.4-12.522-9.98-5.083-24.01-4.707-32.68.942-11.49 7.437-11.3 20.523-10.83 46.601 0 2.825 0 5.743.1 8.944.75 58.37-3.39 72.209-10.18 75.504-2.63 1.224-8 2.542-11.3.753-9.13-5.178-.37-36.81 6.03-59.97 8.76-31.632 16.29-58.934 1.51-66.842-8.38-4.519-26.75-2.354-39.28 4.613-3.86 2.165-7.91 5.083-11.86 11.014-3.49-7.06-8.01-13.086-13.75-18.546-6.03-5.743-18.84-15.816-36.83-19.017-40.02-7.25-74.96 25.231-89.75 41.8-2.07-.282-4.33-.471-6.69-.659 5.09-10.168 10.93-25.607 3.39-31.068-7.53-5.554-21.19 5.178-29.29 12.898-5.84-11.203-14.5-24.1-22.6-21.653-8.76 2.636-8.1 19.488-6.22 32.574-4.14-.094-9.7-.188-14.69.188-4.8-7.155-9.792-10.356-15.066-9.979-10.454.753-21.944 14.686-30.985 100.829-9.889-81.247-26.37-94.521-38.802-96.404-20.72-3.295-38.614 28.62-55.849 59.593a431 431 0 0 0-5.085 9.509c-3.579-20.335-11.302-41.141-30.138-52.439-29.007-17.322-64.89 0-66.397.659a75.6 75.6 0 0 0-10.83 6.59c-4.05-5.366-8.853-9.791-14.221-13.18-18.177-11.486-42.758-10.638-71.2 2.448a64 64 0 0 0-4.898-8.002c-6.592-9.321-15.445-16.57-26.935-22.03-39.367-19.018-102.468-17.605-130.439-3.672-9.512 4.707-15.069 10.732-16.67 17.793-2.072 9.227 3.108 18.076 8.947 24.666-13.844 0-25.523 3.672-30.232 5.178-5.839 1.789-26.182 9.226-43.04 27.961-25.052 27.867-34.564 73.81-25.428 121.07-9.983-.376-18.271 3.672-25.617 7.343-8.759 4.331-17.141 8.379-28.16 5.743s-24.016-11.674-26.559-25.042c-3.013-15.534 7.817-32.198 18.931-35.022 4.614-1.13 8.193.565 12.808 2.636 5.368 2.542 12.149 5.743 21.096 3.201 12.244-3.389 24.864-16.287 23.639-31.162-1.13-13.933-14.503-24.195-27.218-27.114-10.454-2.447-18.553.754-24.392 3.107-3.862 1.601-6.31 2.448-7.44 1.695-2.072-1.506-3.768-7.814-2.732-16.287 1.225-9.98 5.651-18.358 10.643-20.241.942-.377 2.731-1.036 13.844 3.295 13.185 5.178 21.756 10.262 27.877 14.027 8.1 4.896 13.939 8.379 21.473 5.743 9.889-3.483 17.895-16.758 20.72-27.961l.188-.941c6.122-25.702-11.019-47.167-12.996-49.52-15.823-18.83-38.708-20.712-49.633-21.654-10.266-.847-36.542-.941-60.464 16.382-26.935 19.488-33.434 48.484-43.417 92.355-11.019 48.862-7.816 87.461-5.933 101.771 1.224 9.226 2.355 17.982 3.956 26.455h-.095c-13.938 2.636-25.993 4.989-30.702-1.319-2.92-3.954-1.319-9.32 3.673-24.289 3.202-9.603 7.628-22.689 11.867-40.482 7.911-33.516 9.135-58.087 10.265-79.835v-.565c2.166-42.553 4.427-86.519-18.082-97.345-9.324-4.52-22.886-2.542-32.963 4.801-5.934 4.33-9.607 9.697-11.773 15.911-2.637-8.944-7.628-16.099-10.83-20.806-7.346-10.544-21.285-24.478-46.431-31.162-38.52-10.262-72.518 9.132-78.923 13.18-51.704 32.103-69.41 113.35-52.835 241.293 9.042 69.479 28.349 87.649 34.659 93.58 33.528 31.538 88.811 38.128 128.367 15.345 2.354-1.318 8.758-4.989 15.916-11.391.283.376.565.659.848.941 17.8 19.77 41.25 22.971 61.876 25.796 31.456 4.33 56.225 7.814 72.989-9.226 2.92-2.919 5.368-6.402 7.534-10.262 7.817 3.201 16.105 5.554 23.64 6.778 6.592 1.036 65.266 9.226 88.623-29.09 1.036-1.789 2.072-3.578 2.919-5.461 19.496 23.254 39.556 33.798 59.616 31.35 8.947-1.035 17.423-4.707 25.334-10.732 3.391 6.308 7.064 8.567 8.477 9.414 13.185 8.191 31.267 4.331 42.381-2.636 3.296-2.071 6.121-4.425 8.664-7.343 9.324 6.684 18.836 9.509 27.595 8.285 16.199-2.26 29.949-17.417 38.99-41.33v.471c1.507 18.641 2.355 28.902 8.853 36.622 14.692 17.511 47.655 16.287 67.339 3.578 2.448-1.601 4.803-3.389 7.063-5.555 26.559 15.063 62.441 8.85 85.327-5.649 7.534-4.801 14.221-10.826 19.966-18.075.188.188.377.376.471.565 12.62 15.063 24.958 21.747 36.73 19.864 15.54-2.448 27.972-20.147 37.013-52.721 4.52 17.417 12.902 30.597 24.581 38.129 5.274 3.483 19.495 11.109 36.353 8.002 6.781-1.224 14.127-5.084 21.002-10.921 2.077 4.99 4.897 8.944 8.477 11.768 12.9 10.356 34.47 6.308 47.09-3.295 15.54-11.862 18.18-32.386 18.18-54.321 4.8 5.931 10.17 11.203 16.01 15.722 14.78 11.391 32.96 17.982 54.06 19.77.75 9.038 2.16 17.982 3.95 26.831 3.67 17.888 5.75 27.773 13.37 32.386 3.11 1.883 6.79 2.73 10.93 2.73 3.01 0 6.31-.564 9.7-1.6 10.45-3.295 19.68-11.015 24.11-20.241 7.72-16.193 1.7-37.187-13.66-50.556 8.2-6.213 15.45-13.18 21.67-20.806 5.65 14.31 14.12 24.195 26.08 30.786 23.83 13.18 60.09 11.768 84.2-3.201.75-.471 2.07-1.318 3.58-2.542 7.63 13.368 17.52 24.007 29.57 31.726 34.94 22.595 78.92 14.687 101.72 10.074 37.2 31.538 89.65 29.561 123.28 14.216 68.65-31.445 80.52-124.742 62.72-180.005zm-191.09 3.484c-12.72 3.389-24.21 23.253-29.01 49.896-3.96.471-7.72.094-11.77-1.035-12.34-3.578-25.53-14.687-26.09-27.02-.66-14.875 14.79-29.373 27.88-30.973.75 0 1.41-.094 2.07-.094 2.35 0 4.14.47 6.31 1.129 3.58 1.036 7.72 2.166 14.03.848 12.24-2.542 25.15-12.427 27.6-24.855 6.49 12.051 14.97 20.806 24.67 24.666 15.16 6.026 30.33-.941 43.61-7.061 13.56-6.213 25.24-11.674 35.97-5.366 7.26 4.237 13.38 13.557 15.83 24.384 2.16 9.32 1.31 18.075-2.26 23.536-10.36 15.722-51.99 11.58-82.41-2.636-12.62-5.931-20.44-12.427-26.09-17.135-6.88-5.742-12.34-10.355-20.44-8.19zm-17.14-65.054c-15.17-3.201-27.69 4.142-36.83 9.508-3.29 1.977-8.19 4.896-9.6 4.614 0 0-.47-.471-.76-2.354-.75-6.496 3.11-19.582 10.64-29.373 6.5-8.379 15.17-14.122 24.21-16.005 2.35-.471 4.43-.659 6.4-.659 5.65 0 10.27 1.695 15.45 3.578l4.8 1.694c0 13.745 1.6 26.926 4.81 38.694-5.37-4.896-12.44-8.285-19.22-9.697zm-396.31 51.403a417 417 0 0 0-4.24-28.055c2.07 6.307 4.99 6.872 6.69 7.155 1.5.282 3.86.753 7.25-2.542a190 190 0 0 0-3.11 20.523c-2.17.283-4.33 1.224-6.5 2.825zm-6.03-36.999a444 444 0 0 0-3.96-17.323c1.23 0 2.36-.094 3.4-.188-.19 7.343 0 13.086.56 17.511m-418.817-21.559c-2.26 2.353-4.426 4.895-6.593 7.437 0-3.671-.094-7.343-.188-10.921 2.26 1.224 4.521 2.448 6.781 3.484m-58.391-12.239c-.848 2.73-1.79 5.555-2.637 8.379-1.79-2.636-3.768-5.084-5.745-7.344a66 66 0 0 0 8.382-1.035m-64.89 37.658c2.543 7.249 5.65 16.287 14.692 22.689 8.476 5.931 20.625 8.284 31.832 6.496-3.578 15.534-6.686 31.162-9.229 46.695-7.44-1.129-14.881-.188-21.002 2.825-8.947 4.33-12.903 11.58-16.105 17.417-2.543 4.707-4.144 7.437-6.687 8.002-7.346 1.6-19.024-12.239-25.052-22.595-10.454-18.17-14.786-46.884-.659-70.138 6.687-11.015 17.706-21.747 24.487-21.747.565 0 1.036 0 1.507.188 2.825.753 4.144 4.237 6.216 10.262zm-293.935-41.612c6.027 33.515 13.467 75.127-4.333 118.81-.282.565-.471 1.13-.753 1.789-12.338-3.483-25.9 3.013-39.085 9.32-16.01 7.626-32.586 15.534-47.655 7.626-12.431-6.496-18.27-19.958-19.495-29.561-2.637-20.053 11.207-40.671 23.922-42.93.753-.094 1.412-.189 2.072-.189 3.108 0 5.556 1.319 8.947 3.107 4.803 2.542 10.736 5.743 20.06 5.272 15.634-.847 33.434-11.391 36.165-27.49 2.825-16.663-10.736-33.421-25.24-38.599-18.083-6.402-34.752 5.084-48.22 14.404-6.216 4.237-14.692 10.073-17.047 8.473-2.354-1.6-4.238-11.391-.753-27.114 4.332-19.111 13.75-34.457 21.85-35.586 5.179-.754 10.265 5.084 16.104 11.862 7.723 9.038 17.424 20.241 32.492 19.864 14.787-.282 29.95-11.862 36.636-26.831.848 8.567 2.543 17.793 4.333 27.773"/><path fill="#fff" d="M1612.62 118.22c25.14-17.793 25.24-49.05 25.24-52.156-.19-20.335-10.27-41.612-26.09-52.156-38.24-25.513-120.08 4.895-148.99 63.924-25.34 51.685-8.95 123.047 22.7 135.474 27.12 10.544 54.9-26.078 79.95-11.768 17.43 9.979 24.77 39.541 15.17 53.851-13.09 19.488-58.96 12.615-88.34-.847-27.5-12.616-32.31-27.208-42.95-24.384-23.36 6.025-45.39 87.931-5.09 137.169 31.46 38.317 89.57 43.118 129.6 25.231 65.26-29.185 77.13-116.457 59.71-169.084-2.17-6.59-18.56-56.205-50.48-61.383-18.84-3.106-30.52 11.204-51.33 4.237-12.34-4.142-27.41-15.628-28.16-30.974-1.04-21.465 26.27-40.2 39.93-35.492 10.17 3.483 6.69 18.076 19.4 26.078 14.41 9.132 36.83 1.506 49.63-7.532z"/><path fill="#000" d="M1525.03 407.526c-30.98 0-63.29-10.92-84.67-37.093-26.65-32.479-27.87-79.834-17.23-112.314 5.93-18.358 15.07-30.315 24.96-32.857 8-2.071 13.46 2.354 20.34 8.003 5.65 4.613 13.37 10.921 25.99 16.757 30.23 13.84 71.77 17.888 82.13 2.637 3.58-5.273 4.42-13.84 2.26-22.878-2.45-10.544-8.48-19.582-15.73-23.724-10.64-6.12-22.32-.847-35.79 5.272-13.28 6.025-28.35 12.804-43.51 6.873-12.24-4.802-22.79-17.229-29.76-35.211-13-33.233-11.21-75.315 4.33-107.136 16.48-33.704 51.14-61.194 90.32-71.738 26.28-7.061 49.73-4.99 66.02 5.837 16.67 11.109 28.07 33.798 28.35 56.298 0 3.766-.38 37.281-27.41 56.299-15.35 10.826-39.27 17.887-55.28 7.719-7.82-4.989-10.55-11.862-12.72-17.416-1.97-5.084-3.01-7.249-5.55-8.097-4.52-1.6-12.53.942-19.5 6.214-6.97 5.178-14.22 14.31-13.75 24.289.66 13.557 15.16 23.254 24.68 26.455 9.98 3.389 17.33 1.129 25.9-1.412 7.44-2.26 15.16-4.519 24.67-3.013 31.55 5.178 48.6 47.072 54.44 64.772 17.8 53.85 5.93 144.7-62.44 175.297-14.88 6.684-32.68 10.45-50.86 10.45zm-73.18-172.661s-.84 0-1.22.188c-4.71 1.224-12.24 8.85-17.9 26.267-9.7 29.844-8.75 73.244 15.45 102.806 30.89 37.658 86.74 40.388 123.66 23.818 63-28.149 73.55-112.691 56.98-162.87-4.15-12.521-19.69-53.662-46.53-57.993-7.25-1.224-13.56.659-20.15 2.73-8.86 2.636-18.93 5.743-32.02 1.318-14.6-4.895-30.71-18.17-31.55-35.586-.57-11.769 6.12-24.102 17.8-32.857 9.89-7.437 20.9-10.356 28.82-7.626 7.15 2.448 9.6 8.568 11.67 14.028 1.89 4.801 3.68 9.414 8.67 12.615 11.49 7.249 31.27 1.601 44.07-7.437 22.8-16.099 23.17-44.813 23.08-48.014-.19-19.3-9.8-38.6-23.83-48.014-13.56-9.132-34.66-10.732-57.83-4.519-35.88 9.697-68.75 35.775-83.82 66.467-16.38 33.515-13.84 73.903-4.05 99.04 5.94 15.251 14.51 25.701 24.02 29.467 11.21 4.331 23.07-.942 35.69-6.684 14.7-6.59 29.86-13.463 44.93-4.802 9.79 5.555 17.42 16.852 20.53 30.221 2.83 11.956 1.41 23.159-3.77 30.879-15.54 23.066-65.74 14.216-94.65.942-13.75-6.308-22.13-13.086-28.16-18.076-5.37-4.331-7.81-6.214-10.17-6.214z"/><path fill="#fff" d="M1474.36 72.089c-18.36-15.816-43.42-12.05-55.47-10.356-32.12 4.708-53.31 23.63-60.56 30.315-47.09 43.118-49.54 108.454-50.29 132.744-1.22 37.94-3.67 112.785 46.43 144.323 34.47 21.748 78.08 12.993 101.81 8.285 19.68-3.954 29.38-9.414 36.54-16.852 11.87-12.333 19.03-32.291 13.85-52.062-5.47-20.523-22.89-35.586-40.6-39.352-24.95-5.272-36.07 15.251-59.99 8.379-13.84-3.954-28.91-16.193-29.67-30.974-.84-17.511 16.96-33.61 32.21-35.398 9.33-1.036 12.25 3.86 21.95 1.883 11.11-2.26 24.2-12.239 23.83-23.819-.38-11.297-13.38-20.241-24.49-22.595-23.26-4.895-40.5 19.018-48.32 12.898-6.31-4.895-1.22-25.137 9.05-38.034 2.35-3.013 11.49-14.216 27.03-17.417 20.72-4.237 28.91 10.544 49.35 5.743.28 0 .66-.189 1.13-.283 9.88-2.542 18.64-9.602 21.85-15.439 6.59-11.957-3.39-31.727-15.64-42.177z"/><path fill="#000" d="M1409 388.321c-18.83 0-39.18-3.483-57.26-14.875-52.55-33.139-50.01-111.279-48.79-148.748.85-25.043 3.02-91.603 51.9-136.322 19.21-17.605 40.5-28.15 63.29-31.538 12.81-1.883 39.36-5.837 59.42 11.485 14.23 12.145 24.59 34.175 16.77 48.485-4.24 7.625-14.79 15.157-25.05 17.887-.57.094-.95.283-1.23.283-11.77 2.824-20.25-.189-27.69-2.919-6.97-2.448-12.99-4.613-21.85-2.824-9.04 1.883-17.61 7.437-24.11 15.628-7.53 9.508-11.39 22.218-10.64 28.62.19 1.789.75 2.259.75 2.259 1.42.189 6.31-2.636 9.61-4.519 9.14-5.272 21.57-12.427 36.73-9.32 13.47 2.824 28.07 13.369 28.54 27.302.47 14.31-14.13 26.172-27.88 28.997-6.31 1.318-10.36.188-14.03-.848-2.73-.753-4.9-1.412-8.38-.941-13.1 1.506-28.45 15.722-27.79 30.126.57 11.956 13.66 22.783 26 26.361 10.45 3.012 18.08 0 26.74-3.578 8.95-3.672 19.03-7.72 32.78-4.895 20.91 4.424 38.8 21.653 44.45 42.93 5.27 19.676-.66 41.988-15.07 56.863-8.76 9.038-20.53 14.498-39.18 18.264-12.15 2.448-29.48 5.837-48.22 5.837zm28.73-323.105c-7.16 0-13.57.942-18.09 1.6-20.72 3.108-40.21 12.805-57.92 28.998-45.77 41.894-47.84 105.347-48.59 129.166-1.23 38.411-3.58 109.867 44.07 139.899 32.78 20.618 75.25 12.145 98.14 7.626 20.72-4.143 28.53-9.791 33.9-15.346 11.96-12.333 16.86-30.879 12.53-47.261-4.62-17.416-19.78-32.103-36.73-35.68-10.74-2.26-18.65.941-26.94 4.33-9.13 3.672-19.49 7.908-33.34 3.954-15.54-4.424-32.49-18.452-33.34-35.586-.94-20.43 18.93-38.6 36.73-40.671 5.37-.659 9.14.471 12.15 1.318 3.11.847 5.37 1.507 9.33.659 9.6-1.977 20.06-10.356 19.77-18.735-.28-8.096-10.83-15.722-20.43-17.793-11.3-2.354-21.48 3.483-29.58 8.191-7.53 4.33-14.69 8.473-20.81 3.765-1.79-1.318-3.95-4.048-4.61-9.037-1.23-9.886 4.23-25.42 12.71-36.058 8.01-10.073 18.65-16.852 30.04-19.205 11.68-2.354 19.97.564 27.22 3.201 6.97 2.541 13 4.707 21.95 2.541l1.03-.282c8.48-2.259 16.2-8.379 18.74-12.992 5-9.132-3.48-26.454-14.5-35.963-9.98-8.567-22.51-10.733-33.34-10.733z"/><path fill="#fff" d="M1236.09 105.228c11.68-6.402 27.97-7.814 34.37-4.519 22.79 11.956-32.21 109.772-7.63 123.518 5.09 2.824 12.15 1.223 15.92-.565 8.95-4.237 13.84-16.287 13.09-78.14-.38-30.221-1.79-43.401 8.29-49.803 7.35-4.613 19.31-4.801 27.59-.659 22.23 11.109 4.62 46.884 8.57 121.541 2.55 48.673 13.28 94.145-12.33 117.963-3.49 3.201-7.07 5.555-7.82 6.025-22.32 13.557-56.79 14.875-78.92 3.013-27.41-14.781-30.52-47.072-33.81-82.659-1.42-15.063 0-29.373 2.73-57.993 7.81-80.776 19.68-92.262 29.85-97.816z"/><path fill="#000" d="M1273.01 356.876c-13.75 0-27.32-2.918-38.24-8.755-29.86-16.005-33.06-50.273-36.45-86.613-1.41-15.534 0-30.032 2.73-58.935 7.91-81.906 20.44-95.18 32.49-101.77 12.44-6.778 30.8-8.944 39.18-4.519 14.79 7.72 7.26 34.363-1.41 65.148-6.4 22.501-15.07 53.38-6.03 58.37 3.3 1.789 8.67.565 11.3-.659 6.79-3.201 10.84-16.664 10.18-73.527 0-3.107 0-5.931-.1-8.662-.47-25.419-.66-38.128 10.74-45.377 8.66-5.46 22.7-5.931 32.58-.942 16.58 8.285 15.17 26.173 13 55.734-1.41 18.358-3.11 41.141-1.6 70.138.47 9.508 1.32 18.829 2.07 27.961 3.3 37.658 6.31 73.15-16.01 93.956-3.48 3.201-7.16 5.743-8.66 6.684-13 7.909-29.48 11.863-45.68 11.863zm-34.57-247.223c-6.69 3.671-19.21 10.45-27.31 93.862-2.73 28.243-4.14 42.365-2.73 57.051 3.29 34.928 6.12 65.149 31.17 78.611 20.53 11.015 53.03 9.791 73.84-2.824.85-.565 4.05-2.636 6.97-5.46 18.74-17.511 16.01-49.05 12.9-85.672-.75-9.132-1.6-18.641-2.17-28.338-1.6-29.561.19-52.815 1.61-71.361 2.16-28.244 2.63-40.859-7.44-45.943-6.79-3.39-16.96-3.2-22.61.471-6.31 4.048-6.5 12.615-6.12 36.716 0 2.73.09 5.649.09 8.756.85 64.018-4.23 77.292-15.91 82.753-5.28 2.542-13.85 4.048-20.53.376-16.01-8.943-7.63-38.599 1.22-69.949 5.93-20.9 14.03-49.52 6.5-53.474-4.43-2.354-18.84-1.507-29.67 4.425z"/><path fill="#fff" d="M1229.12 199.466c-1.6-54.509-2.92-82.188-24.39-102.24-4.05-3.766-16.2-14.122-34.1-17.23-47.09-8.284-87.3 41.519-91.73 47.167-44.55 56.77-44.45 157.881 9.23 198.175 18.74 14.028 40.03 17.699 55.57 18.546.47 7.344 1.6 17.7 4.23 29.844 3.49 16.57 5.37 24.949 10.93 28.149 10.27 6.026 30.42-1.976 37.48-16.381 7.07-14.592.57-35.492-17.7-47.072 10.07-6.684 24.86-18.358 36.16-36.999 16.2-26.549 15.82-52.062 14.32-101.77z"/><path fill="#000" d="M1167.15 408.844c-4.05 0-7.82-.941-10.83-2.73-7.63-4.425-9.61-14.027-13.38-31.538-1.79-8.662-3.2-17.417-3.95-26.173-21-1.694-39.18-8.19-53.87-19.205-22.61-16.946-37.58-45.378-42.1-79.929-5.93-44.719 6.31-92.732 31.93-125.401 7.62-9.696 47.93-57.522 96.53-48.955 17.99 3.201 30.7 12.992 36.64 18.547 23.54 21.841 24.39 51.685 25.99 105.724 1.51 49.144 2.26 76.163-15.07 104.595-8.1 13.274-18.74 24.854-31.83 34.551 15.25 12.992 21.19 33.421 13.56 49.238-4.33 9.038-13.56 16.569-24.02 19.77-3.39 1.036-6.59 1.506-9.6 1.506m-7.16-324.799c-39.74 0-73.18 41.047-77.13 46.131-23.93 30.503-35.41 75.692-29.86 117.775 4.24 31.821 17.8 57.805 38.14 73.15 14.13 10.545 31.84 16.476 52.75 17.511 2.54.095 4.61 2.166 4.8 4.708.66 9.791 2.07 19.582 4.14 29.184 3.2 14.875 4.99 22.784 8.57 24.855 2.83 1.694 7.54 1.788 12.43.282 7.82-2.353 14.7-7.908 17.9-14.498 5.56-11.486 1.22-29.844-15.82-40.671-1.42-.941-2.36-2.542-2.36-4.236 0-1.695.85-3.295 2.26-4.237 14.51-9.602 26.18-21.559 34.66-35.398 15.16-24.76 15.07-48.296 13.56-99.04-1.69-55.263-3.2-80.494-22.79-98.664-5.18-4.801-16.2-13.274-31.55-16.005-3.3-.564-6.5-.847-9.7-.847"/><path fill="#fff" d="M1141.15 172.918c3.96-2.26 10.55-.189 13.85 3.765 5.37 6.496.75 16.099 0 17.7-2.36 4.989-8.1 11.674-12.25 10.544-7.06-1.977-10.26-27.114-1.69-32.009z"/><path fill="#000" d="M1143.79 210.105c-.75 0-1.6-.094-2.35-.377-7.73-2.165-9.8-14.216-10.18-17.793-1.03-8.661.38-19.394 7.45-23.348 6.49-3.766 15.72-.471 20.24 4.896 4.81 5.742 5 14.121.66 23.065-2.82 5.837-9.04 13.463-15.73 13.463zm-.19-32.762c-1.03.659-2.35 3.389-2.54 8.002-.38 6.778 1.69 12.804 3.11 14.498 1.5-.753 4.52-3.954 6.31-7.626.94-1.977 3.76-8.567.66-12.238-2.17-2.542-6.12-3.39-7.54-2.636"/><path fill="#fff" d="M960.517 254.071c8.477-122.106 20.908-149.879 31.174-150.632 16.199-1.129 34.469 64.96 39.559 111.562 7.25 66.56-11.4 102.806-19.4 116.08-17.334 28.903-34.38 32.48-38.053 33.139-15.446 2.824-28.631-4.519-32.681-7.061-25.334-16.004-32.774-61.382-19.401-112.691-.941 13.18-9.229 120.694-45.488 126.154-14.787 2.259-28.349-13.463-32.022-17.699-48.408-56.299 19.307-177.934 26.088-189.796 15.351-26.925 33.246-58.181 50.481-55.545 25.522 3.954 35.317 79.081 39.555 146.395z"/><path fill="#000" d="M873.307 375.894c-10.548 0-21.567-6.59-32.775-19.676-50.292-58.464 17.612-181.7 25.523-195.539 17.235-30.126 34.941-61.194 55.66-57.993 12.338 1.883 28.819 14.781 38.708 93.956 9.041-83.883 20.531-97.44 30.891-98.192 24.586-1.695 41.536 84.447 44.926 115.986 5.18 47.543-1.79 88.778-20.06 119.281-16.484 27.396-33.059 33.986-41.441 35.492-16.859 3.013-30.986-4.424-36.26-7.814-11.772-7.437-20.06-20.335-24.486-36.904-7.535 26.078-19.025 48.39-36.825 51.12a25 25 0 0 1-3.767.283zm45.489-263.323c-13.656 0-31.08 30.597-43.982 53.098-7.535 13.274-72.425 130.767-26.653 184.053 12.714 14.686 21.85 16.851 27.406 16.004 15.728-2.448 27.407-31.915 34.564-69.102-.377-16.193 1.79-34.363 6.781-53.38.659-2.542 3.108-4.142 5.745-3.672 2.543.377 4.427 2.73 4.238 5.367-.753 10.92-2.637 30.973-6.498 52.25.847 26.172 8.947 46.601 23.545 55.922 3.39 2.165 15.351 8.849 29.007 6.402 5.463-.942 19.684-5.931 34.561-30.786 17.14-28.525 23.64-67.596 18.65-112.973-2.54-23.536-8.48-51.403-15.35-72.68-9.32-28.62-16.765-34.457-18.837-34.363 0 0-5.556.659-11.678 25.984-5.933 24.478-10.925 64.772-14.786 119.94-.188 2.636-2.355 4.708-4.992 4.708s-4.897-2.072-4.991-4.708c-7.535-119.657-25.335-140.181-35.318-141.687-.47 0-.941-.094-1.318-.094z"/><path fill="#fff" d="M860.121 216.789c-1.695-36.434-3.485-77.104-31.644-93.579-26.371-15.44-59.616 0-61.406.847-50.951 24.477-55.754 101.864-58.108 140.464-2.637 43.871-5.18 85.389 22.697 106.006 24.016 17.7 61.593 13.369 85.892-1.694 48.22-29.938 44.924-102.524 42.663-152.138z"/><path fill="#000" d="M770.085 387.191c-14.88 0-29.572-3.671-41.439-12.427-30.137-22.218-27.5-65.054-24.769-110.337 2.355-38.6 7.252-118.999 60.934-144.701 1.507-.753 37.296-17.511 66.209-.659 30.514 17.793 32.492 60.253 34.187 97.628 2.26 49.803 5.745 125.118-45.018 156.657-13.562 8.379-31.927 13.933-50.009 13.933zm31.268-265.77c-16.764 0-31.268 6.778-32.115 7.249-48.314 23.254-52.929 99.605-55.19 136.227-2.637 42.459-5.085 82.659 20.72 101.676 22.886 16.852 58.391 11.58 80.147-1.882 45.677-28.338 42.381-100.17 40.215-147.619-1.601-34.834-3.391-74.375-29.196-89.438-7.911-4.613-16.481-6.213-24.581-6.213"/><path fill="#fff" d="M787.226 183.838c-5.462-1.035-12.526 8.191-14.315 16.852-2.354 11.486 4.144 25.043 10.077 25.231 5.557.188 10.925-11.109 11.773-20.147.847-8.755-1.884-20.806-7.535-21.841z"/><path fill="#000" d="M783.177 231.005h-.283c-2.26 0-5.745-1.036-9.135-5.272-4.238-5.366-7.911-15.816-5.84-25.984 1.978-9.885 10.643-22.501 20.155-20.806 9.7 1.789 12.714 17.04 11.678 27.302-1.036 10.073-6.969 24.76-16.67 24.76zm3.108-42.177c-1.884.283-6.97 5.743-8.382 12.898-1.79 8.661 2.825 17.888 5.274 19.111 1.977-1.035 5.839-7.814 6.686-15.628.754-7.814-1.789-15.345-3.484-16.381z"/><path fill="#fff" d="M575.605 360.548c-41.816-50.932-7.064-181.04 74.873-229.713 12.243-7.249 55.377-32.856 86.645-13.463 26.464 16.382 33.057 57.617 21.85 88.308-10.643 29.185-37.861 50.179-70.729 54.698 8.57-.753 30.231-1.412 46.242 12.615 29.572 25.796 22.886 86.519-9.23 106.855-18.553 11.768-48.314 11.768-60.557-2.542-5.274-6.12-6.122-15.063-7.535-32.857-1.507-18.829-.942-34.551 0-45.471-4.615 46.036-22.885 77.763-44.641 80.681-18.742 2.542-35.129-16.946-37.013-19.299z"/><path fill="#000" d="M694.177 393.405c-13.091 0-25.617-3.954-33.245-12.804-6.499-7.532-7.252-17.511-8.759-35.681v-.47c-9.041 23.347-22.697 38.128-38.896 40.293-20.814 2.825-38.332-17.04-41.628-21.088-17.141-20.9-22.98-55.357-16.105-94.71 10.454-59.499 46.714-115.421 92.297-142.535 38.425-22.783 69.41-27.301 91.919-13.368 29.478 18.17 35.317 63.171 24.016 94.333-8.194 22.5-25.523 40.294-47.655 50.273 7.44 2.071 15.069 5.649 21.85 11.486 14.598 12.709 22.132 34.457 20.342 58.181-1.883 24.384-13.467 46.131-30.231 56.769-9.418 5.931-21.85 9.321-33.905 9.321m-36.918-99.323h.47c2.732.282 4.804 2.636 4.615 5.46a271.6 271.6 0 0 0 0 44.625c1.413 17.323 2.261 25.137 6.405 29.938 10.077 11.674 36.824 12.427 54.059 1.506 14.127-8.943 23.921-27.678 25.522-48.955 1.601-20.523-4.709-39.164-16.952-49.802-13.656-11.957-32.492-12.239-42.569-11.392-2.731.188-5.18-1.789-5.463-4.425-.282-2.73 1.601-5.178 4.333-5.554 31.079-4.237 56.602-23.913 66.679-51.403s5.274-66.749-19.778-82.283c-19.024-11.768-46.43-7.249-81.465 13.463-43.135 25.607-77.51 78.799-87.493 135.568-6.405 36.434-1.319 67.973 13.938 86.519 1.695 1.977 16.67 19.677 32.492 17.511 19.495-2.636 35.977-33.986 40.215-76.163.283-2.636 2.449-4.519 4.992-4.519z"/><path fill="#fff" d="M662.25 203.233c-3.296-5.084.188-13.087 5.933-16.005 4.332-2.259 10.642-1.883 13.468 1.695 3.861 4.989.282 15.063-6.687 17.699-4.144 1.506-10.077.565-12.62-3.389z"/><path fill="#000" d="M670.726 212.365c-4.803 0-9.795-1.883-12.714-6.402-2.072-3.201-2.637-7.249-1.601-11.392 1.318-4.989 4.897-9.508 9.324-11.768 6.121-3.107 15.163-2.824 19.777 3.107 2.637 3.389 3.391 8.19 1.978 13.086-1.601 5.743-5.839 10.544-10.925 12.427-1.789.659-3.861 1.036-5.933 1.036zm-4.238-11.957c1.13 1.789 4.521 2.165 6.687 1.412 2.072-.753 3.955-3.107 4.709-5.743.565-1.977.282-3.483-.189-4.142-.941-1.224-4.52-1.695-7.157-.282-1.884 1.035-3.673 3.201-4.238 5.46-.189.753-.471 2.26.282 3.295z"/><path fill="#fff" d="M634.938 90.73c7.157 3.389 17.046 9.132 24.863 19.864 9.135 12.615 16.67 33.704 9.23 43.307-8.477 10.826-36.825 8.19-68.469-11.298 1.13 43.024.848 78.893.377 104.877-1.884 97.252-8.571 121.259-26.371 132.085-10.454 6.402-26.182 9.038-37.012 2.542-5.557-3.295-21.944-16.381-8.477-109.396 4.898-34.08 14.222-81.341 33.152-136.792-3.485 1.224-26.371 8.567-46.525-4.519-8.476-5.46-22.886-18.641-20.154-30.315 5.839-25.795 92.578-32.574 139.48-10.355z"/><path fill="#000" d="M552.248 390.863c-6.028 0-12.055-1.318-17.329-4.519-16.953-10.262-20.532-47.732-10.925-114.48 6.216-43.118 16.481-86.425 30.42-128.884-10.454 1.883-26.559 2.259-41.533-7.438-9.889-6.401-25.711-21.088-22.415-35.68 1.601-6.967 7.157-12.804 16.575-17.323 27.878-13.557 90.79-14.97 129.969 3.577 11.395 5.367 20.154 12.427 26.841 21.465 8.853 12.239 19.212 36.434 9.135 49.332-10.077 12.992-37.578 10.45-67.244-5.554.659 32.103.753 64.395.094 96.121-1.884 95.463-7.817 123.518-28.819 136.322-6.687 4.048-15.822 7.061-24.958 7.061zm9.983-260.028c1.318 0 2.637.471 3.579 1.506 1.318 1.318 1.789 3.39 1.224 5.178-15.351 44.719-26.465 90.473-32.963 135.851-12.055 83.601.283 100.829 6.122 104.407 9.135 5.46 22.885 2.918 31.832-2.542 14.975-9.132 22.039-29.75 23.922-127.849.659-34.457.565-69.667-.377-104.594 0-1.883.942-3.578 2.543-4.52a5.1 5.1 0 0 1 5.18 0c31.55 19.394 56.225 19.771 61.876 12.522 5.274-6.779-.565-25.231-9.324-37.187-5.556-7.626-13.091-13.651-22.979-18.264-36.165-17.135-95.875-15.911-121.304-3.578-4.521 2.165-10.077 5.837-11.207 10.544-1.79 8.003 9.418 19.394 17.988 24.949 17.706 11.391 38.237 5.272 42.193 3.954a5.2 5.2 0 0 1 1.601-.283z"/><path fill="#fff" d="M533.883 139.685c-23.828-17.793-54.813-8.379-63.195-5.837-3.39 1.035-23.827 7.531-40.591 25.795-39.367 42.836-34.376 124.554 2.166 176.71 9.889 14.122 35.223 50.273 68.28 46.413 27.312-3.201 44.641-31.821 50.669-51.026 6.875-21.747 7.252-56.863-12.903-68.914-8.005-4.801-20.531-6.59-30.326-1.977-14.409 6.873-13.561 22.971-23.827 25.137-13.844 2.918-29.667-23.16-30.326-24.384-12.432-20.994-14.692-50.744-.565-73.527 6.404-10.262 20.531-26.266 31.55-23.159 11.208 3.106 7.44 22.5 22.415 32.856 13.939 9.603 38.708 7.532 47.278-5.084 9.889-14.686-4.238-40.67-20.625-52.815z"/><path fill="#000" d="M495.646 388.038c-33.34 0-57.921-35.116-67.527-48.767-35.506-50.649-44.736-136.321-1.79-183.017 16.764-18.17 37.013-25.419 42.852-27.208 27.689-8.473 50.481-6.213 67.715 6.59 17.235 12.898 33.811 41.801 21.756 59.688-4.238 6.308-11.773 10.733-21.191 12.521-11.772 2.26-24.486 0-33.151-6.025-9.041-6.213-12.149-14.969-14.692-22.124-2.072-5.837-3.39-9.226-6.216-9.979-6.592-1.789-18.741 9.414-25.899 20.994-14.127 22.689-9.795 50.65.659 68.349 6.028 10.074 17.706 23.536 24.958 22.03 2.543-.565 4.144-3.201 6.687-7.72 3.202-5.649 7.157-12.803 16.01-17.04 12.149-5.743 26.37-3.013 35.035 2.165 23.733 14.216 21.85 53.38 15.163 74.845-5.839 18.547-24.016 50.838-54.907 54.51a55 55 0 0 1-5.556.283zm4.144-253.908c-8.382 0-17.612 1.507-27.595 4.613-5.18 1.601-23.357 8.097-38.331 24.384-35.977 39.07-34.753 117.116 2.543 170.402 9.135 13.086 33.528 47.731 63.571 44.248 25.805-3.013 41.345-31.256 46.431-47.544 6.215-19.864 7.063-52.532-10.643-63.076-6.216-3.672-16.858-5.837-25.522-1.695-6.028 2.824-8.665 7.72-11.585 12.804-2.919 5.272-6.215 11.203-13.467 12.709-16.764 3.578-32.775-21.653-35.789-26.737-14.409-24.383-14.692-56.016-.471-78.799 7.064-11.297 22.792-29.373 37.202-25.419 7.911 2.165 10.548 9.414 12.996 16.381 2.261 6.308 4.615 12.804 10.925 17.135 6.404 4.424 16.482 6.213 25.523 4.424 6.687-1.224 11.961-4.236 14.692-8.19 7.817-11.58-4.238-34.646-19.495-45.943q-12.856-9.603-31.08-9.603z"/><path fill="#fff" d="M179.484 67.476c-14.598-20.523-36.824-26.643-43.417-28.338-37.483-9.79-70.635 9.697-74.779 12.24C-13.49 96.848 5.535 240.513 10.998 281.466c8.381 62.983 25.334 81.152 32.962 88.119 30.986 28.432 84.009 35.681 122.057 14.31 5.745-3.201 24.205-13.933 35.318-36.151 14.692-29.279 13.656-72.492-5.934-84.166-24.204-14.404-59.615 30.691-92.296 14.028-13.185-6.779-20.53-20.806-22.132-32.574-2.92-21.465 11.96-44.719 27.971-47.449 11.961-2.071 16.105 8.755 31.551 7.908 12.808-.753 29.007-9.226 31.362-22.595 2.26-13.086-9.136-27.584-21.85-32.009-27.406-9.509-54.153 29.75-66.209 21.748-13.09-8.756 1.79-67.314 23.169-70.232 16.858-2.26 25.146 31.444 48.973 30.973 15.069-.282 30.985-14.122 34.376-30.409 3.202-15.44-5.839-28.243-10.925-35.304z"/><path fill="#000" d="M116.101 401.407c-27.594 0-55.472-9.697-75.532-28.149-6.31-5.837-25.617-23.536-34.564-91.132C-10.57 157.478 7.23 78.396 58.652 47.141c6.404-3.86 40.308-22.783 78.64-12.804 25.052 6.496 38.99 20.053 46.242 30.315 5.368 7.531 15.445 21.653 11.772 39.258-3.861 18.264-21.755 34.08-39.178 34.363-15.069.376-24.675-10.639-32.398-19.394-5.839-6.59-10.831-12.333-16.011-11.58-8.1 1.13-17.517 16.005-21.755 34.645-3.58 15.346-1.695 24.76.753 26.361 2.355 1.6 10.83-4.143 16.953-8.285 13.373-9.038 30.043-20.241 48.031-14.027 14.504 4.989 28.066 21.37 25.24 37.563-2.731 15.628-20.437 25.89-36.07 26.832-9.23.564-15.163-2.636-19.967-5.084-4.143-2.166-6.875-3.578-11.019-2.825-12.714 2.166-26.464 22.313-23.827 41.801 1.224 9.32 7.158 22.5 19.495 28.808 15.069 7.626 31.55 0 47.467-7.438 15.445-7.155 31.362-14.592 45.112-6.401 22.791 13.556 22.886 60.723 7.817 90.755-5.557 11.015-16.482 26.549-37.39 38.317-15.728 8.849-33.998 13.18-52.364 13.18zm-1.695-360.01c-25.523 0-45.866 11.392-50.48 14.217C16.176 84.61.072 160.397 15.988 280.714c8.476 64.018 25.711 79.834 31.362 85.012 29.855 27.396 80.9 33.422 116.124 13.651 18.647-10.45 28.442-24.289 33.339-34.08 14.127-28.149 12.055-67.973-3.955-77.575-9.136-5.461-21.473.282-35.694 6.872-17.329 8.097-36.919 17.229-56.32 7.249-15.822-8.096-23.262-24.666-24.863-36.434-3.202-23.442 12.714-49.802 32.115-53.097 7.534-1.318 12.808 1.412 17.423 3.86 4.238 2.259 8.288 4.33 14.692 3.954 11.396-.659 24.864-8.191 26.653-18.453 1.884-10.732-8.288-22.783-18.553-26.36-13.185-4.613-26.936 4.707-39.085 12.804-10.83 7.343-20.248 13.651-28.254 8.284-10.83-7.249-6.498-30.22-4.991-37.093 4.238-18.264 14.692-40.294 30.326-42.365 10.548-1.412 17.894 6.873 24.957 14.875 6.97 7.908 14.221 16.193 24.581 16.005 12.809-.283 26.653-12.616 29.573-26.361 2.825-13.274-5.274-24.571-10.078-31.35-6.31-8.85-18.459-20.618-40.591-26.455-6.969-1.788-13.845-2.541-20.343-2.541z"/><path fill="#fff" d="M413.144 95.625c-14.221-16.57-35.035-18.452-46.054-19.394-5.368-.47-32.68-2.165-56.979 15.064-25.24 17.887-31.55 45.095-41.25 86.989-11.679 50.556-6.97 88.59-5.839 97.346 4.144 30.314 7.346 53.945 26.464 76.069 23.922 27.678 55.755 33.233 61.876 34.174 5.463.847 61.5 8.85 83.255-25.984 7.629-12.144 10.925-29.467 5.368-46.036-.376-1.224-9.794-27.867-32.492-33.704-23.827-6.025-35.976 17.605-61.216 11.58-12.432-2.919-27.218-12.804-30.326-28.338-3.485-17.511 8.947-36.528 22.603-39.917 12.902-3.201 19.683 9.508 33.622 5.742 10.36-2.824 20.814-13.65 19.872-25.136-.942-11.768-13.468-19.676-23.168-21.936-16.67-3.766-26.276 8.944-33.528 3.86-9.701-6.872-5.274-39.07 9.041-44.436 2.825-1.036 6.027-1.13 17.423 3.201 29.949 11.391 36.071 22.5 45.677 19.111 8.1-2.824 15.069-14.498 17.424-23.724 0-.377.188-.659.188-.848 5.557-22.783-10.266-41.894-11.867-43.777z"/><path fill="#000" d="M370.575 392.181c-10.172 0-17.8-1.036-19.966-1.412-11.773-1.883-41.722-9.038-64.89-35.869-20.06-23.254-23.357-47.638-27.595-78.705-1.883-13.934-5.18-51.497 5.839-99.135 9.889-42.741 16.388-70.985 43.229-90.002 24.487-17.323 52.364-16.57 60.275-16.005 10.925.848 33.716 2.73 49.444 21.089 1.978 2.26 19.025 23.159 12.997 48.202l-.188.941c-2.826 10.921-10.831 23.819-20.626 27.208-7.44 2.636-13.279-.847-21.378-5.554-6.216-3.672-14.692-8.662-27.783-13.651-11.114-4.237-12.903-3.578-13.845-3.201-4.991 1.883-9.324 9.979-10.548 19.77-1.036 8.285.565 14.404 2.731 15.911 1.036.753 3.485-.095 7.346-1.601 5.839-2.259 13.939-5.46 24.299-3.013 12.62 2.919 25.993 12.898 27.123 26.455 1.131 14.498-11.301 27.114-23.545 30.409-8.947 2.448-15.633-.659-21.002-3.107-4.52-2.071-8.099-3.766-12.714-2.636-11.019 2.73-21.85 19.017-18.836 34.08 2.637 13.087 15.54 21.842 26.465 24.478 11.019 2.636 19.307-1.412 28.065-5.555 9.23-4.424 19.684-9.414 33.246-6.025 25.617 6.496 35.6 35.681 36.071 36.999 5.556 16.664 3.39 35.399-5.84 50.273-15.728 25.137-47.372 29.75-68.374 29.75zm-9.889-311.148c-10.642 0-30.138 1.977-47.655 14.404-23.733 16.758-29.572 42.083-39.273 83.977-10.642 45.943-7.534 82.094-5.745 95.463 4.144 30.503 7.158 52.438 25.24 73.432 21.567 24.949 50.481 31.162 58.863 32.48 5.933.942 58.297 8.097 78.169-23.724 7.628-12.333 9.512-27.867 4.897-41.706 0-.283-8.664-25.231-28.913-30.409-10.077-2.542-17.612 1.13-26.465 5.366-9.512 4.519-20.248 9.697-34.752 6.308-14.409-3.389-30.608-14.687-34.093-32.292-4.238-21.088 10.642-41.988 26.276-45.848 8.006-1.977 14.033.753 19.401 3.201 4.898 2.259 8.759 4.048 14.221 2.542 8.194-2.166 16.859-11.203 16.105-19.865-.753-9.602-12.243-15.816-19.307-17.417-7.346-1.694-13.279.565-18.365 2.636-5.274 2.072-11.301 4.425-16.952.471-5.839-4.142-8.382-13.651-6.875-25.419 1.412-10.921 6.592-24.007 17.046-27.867 4.803-1.788 9.701-1.035 21.002 3.201 13.939 5.272 22.886 10.545 29.385 14.404 7.346 4.331 9.983 5.743 12.902 4.708 5.933-2.071 12.149-12.145 14.221-20.241l.189-.659c4.897-20.336-9.136-37.47-10.831-39.447-13.091-15.251-32.304-16.758-42.663-17.605a90 90 0 0 0-6.028-.188z"/><path fill="#fff" d="M236.84 69.17c-8.288-3.86-19.872-1.412-27.783 4.237-35.694 25.325 22.885 99.982-11.773 183.394-11.678 28.055-31.079 50.461-25.24 84.165 3.391 19.394 14.692 31.256 16.858 33.61 16.576 17.887 38.237 20.806 58.674 23.536 30.985 4.142 53.589 7.249 68.469-7.532 19.872-19.77 17.235-62.794-2.825-79.081-26.088-21.277-71.954 10.544-85.892-7.532-7.723-10.073 3.955-23.348 14.598-67.313 7.816-32.48 9.041-56.769 10.077-77.387 1.978-38.411 4.144-80.87-15.163-90.002z"/><path fill="#000" d="M283.271 406.585c-10.831 0-23.075-1.601-36.448-3.483-20.531-2.731-43.888-5.931-61.688-25.137-9.512-10.262-15.728-22.783-18.082-36.246-4.615-26.737 5.745-46.978 15.822-66.654 3.39-6.59 6.875-13.369 9.7-20.335 17.706-42.554 10.266-83.13 4.238-115.704-5.744-31.256-10.265-56.016 9.23-69.856 10.077-7.154 23.545-9.038 32.869-4.613 22.415 10.545 20.154 53.38 17.988 94.804v.659c-1.13 21.183-2.354 45.095-10.265 77.669-4.144 17.323-8.571 30.127-11.773 39.447-4.991 14.592-6.592 19.77-3.673 23.63 4.615 6.12 16.67 3.86 30.609 1.224 18.176-3.389 38.802-7.249 54.435 5.461 10.549 8.567 17.33 24.101 18.177 41.517.942 17.982-4.709 34.834-14.974 45.002-9.513 9.508-21.756 12.427-36.26 12.427zM227.61 72.371c-5.18 0-10.925 1.79-15.634 5.178-14.221 10.168-10.454 30.974-5.179 59.782 6.215 33.892 13.938 76.069-4.898 121.447-3.014 7.343-6.592 14.31-10.077 21.088-9.701 19.017-18.93 36.905-14.88 60.253 1.977 11.391 7.44 22.312 15.445 30.973 15.446 16.664 35.883 19.394 55.66 22.124 29.667 4.049 51.14 6.873 64.231-6.119 8.288-8.285 12.808-22.218 12.055-37.375-.754-14.593-6.122-27.397-14.504-34.175-11.961-9.791-29.384-6.496-46.242-3.389-16.482 3.107-32.021 5.931-40.497-5.084-6.405-8.379-3.202-17.605 2.166-33.045 3.108-9.132 7.44-21.653 11.584-38.505 7.628-31.727 8.853-55.169 9.889-75.881v-.659c1.789-34.551 4.049-77.48-12.244-85.2q-3.108-1.413-7.063-1.413z"/><path fill="#fff" d="M1063.64 294.929c-.18-5.272-2.54-79.175-18.93-80.87-22.13-2.259-69.407 127.001-37.48 151.95 10.64 8.284 29.76 4.989 40.78-3.296 17.42-12.992 16.58-39.446 15.63-67.878z"/><path fill="#000" d="M1023.15 375.988c-6.97 0-13.75-1.789-19.12-5.931-24.96-19.488-7.63-83.695 4.9-114.951 7.25-17.887 21.56-47.543 36.16-46.037 17.14 1.789 22.23 47.544 23.55 85.672.94 29.562 1.88 57.522-17.71 72.115-7.44 5.554-17.89 9.132-27.88 9.132zm20.9-156.845c-3.1 0-13.56 9.791-25.61 39.823-16.48 40.859-24.018 90.661-8.1 103.183 8.38 6.59 25.24 3.671 34.66-3.39 15.35-11.391 14.5-36.81 13.65-63.641-1.6-48.767-9.42-75.41-14.41-75.975h-.19"/><path fill="#fff" d="M1069.58 138.367c16.57-3.766 28.53-8.568 28.16-12.145-.38-3.578-13.28-6.025-30.71-6.496 9.14-15.251 12.44-28.243 8.76-30.88-3.67-2.636-15.35 4.237-27.59 16.947-7.35-15.44-15.64-25.89-19.69-24.666-4.23 1.224-4.89 14.592-1.6 32.197-1.97-.094-30.416-1.789-31.452 3.484-.754 3.671 11.682 9.979 29.382 15.816-5.84 2.259-30.512 12.145-29.194 17.605 1.507 6.119 33.904 3.483 38.894 3.107-.85 18.452.66 32.574 4.71 33.327s10.64-12.239 16.58-30.597c4.05 3.107 25.9 19.864 30.13 16.004 4.62-4.142-14.03-30.314-16.48-33.703z"/><path fill="#000" d="M1040 191.841a8.5 8.5 0 0 1-1.69-.188c-2.92-.565-9.61-1.789-8.95-32.763-36.162 2.448-37.764-3.86-38.611-7.343-1.036-4.142-.094-9.226 20.251-18.452-22.135-8.944-21.005-14.31-20.44-17.135.566-2.918 1.79-8.849 30.33-7.908-1.89-12.803-2.45-29.09 6.21-31.632 8.1-2.354 16.77 10.167 22.61 21.088 8.09-7.532 21.66-17.982 29.19-12.521 7.44 5.366 1.6 20.335-3.39 30.314 26.37 1.695 27.03 7.814 27.31 10.639.29 2.824 1.04 9.038-24.77 15.816 18.93 27.584 14.13 31.915 11.49 34.269-2.45 2.165-6.87 6.119-30.98-11.486-8.76 24.572-14.88 27.584-18.37 27.584zm-5.36-43.495c1.32 0 2.54.471 3.48 1.412 1.04 1.036 1.6 2.448 1.51 3.86-.57 13.651.19 21.559 1.03 25.608 2.45-3.86 6.22-11.863 10.46-24.666a4.82 4.82 0 0 1 3.29-3.295c1.61-.471 3.3-.189 4.62.847 10.36 8.002 17.61 12.427 21.75 14.31-2.07-5.084-7.44-14.31-15.25-25.043a4.98 4.98 0 0 1-.66-4.707c.56-1.6 1.98-2.73 3.58-3.107 10.55-2.353 17.04-4.707 20.72-6.401-4.05-.942-11.02-1.977-22.23-2.26-1.79 0-3.39-1.035-4.33-2.636-.85-1.6-.85-3.483 0-4.99 6.78-11.297 9.32-19.864 9.51-23.442-3.48 1.224-11.11 5.932-20.44 15.628a4.9 4.9 0 0 1-4.42 1.507 5.25 5.25 0 0 1-3.77-2.825c-5.56-11.768-10.55-18.17-13.28-20.711-.75 3.671-1.04 12.05 1.51 25.136a5.24 5.24 0 0 1-1.13 4.331 5.23 5.23 0 0 1-4.15 1.694c-8.66-.564-17.33-.376-22.6.189 3.77 2.165 10.74 5.366 22.41 9.32 1.98.659 3.4 2.542 3.49 4.707 0 2.166-1.23 4.049-3.2 4.802-12.15 4.801-19.69 8.661-23.45 11.203 5.46.847 16.38 1.035 30.98-.188h.38z"/></svg>