<svg xmlns="http://www.w3.org/2000/svg" width="1176" height="593" fill="none"><path fill="#000" d="M1015.54 260.686c2.26-9.226.75-16.946 0-19.864-.47-1.789-1.13-3.484-1.79-5.084.38.377.75.753 1.13 1.036 9.8 9.037 17.71 12.144 24.58 14.969 6.97 2.824 13 5.178 20.91 13.274 1.04 1.036 25.43 26.36 17.24 43.589-2.92 6.213-10.55 12.615-16.86 11.862-4.43-.565-7.07-4.707-11.87-12.804-4.99-8.473-11.87-20.052-25.52-30.502-3.77-2.919-7.35-5.649-11.02-7.72a40 40 0 0 0 3.29-8.662zm-18.741-45.472c-7.817-6.025-17.235-11.014-27.03-15.157 6.593-.282 13.091-1.035 19.495-2.636 1.884 6.684 4.521 12.615 7.629 17.793zm-377.944 33.233c-6.498-28.714-18.836-56.016-36.636-81.34 15.446 1.882 30.891 1.694 46.054-.754 2.637-.376 5.745-1.035 9.136-1.694-2.166 7.061-4.333 14.78-6.499 22.971-5.368 19.77-9.324 40.388-12.055 60.912zm-399.416 10.168a161 161 0 0 0 15.822-6.872c-5.274 12.521-9.983 26.172-14.127 41.047-.283-11.298-.848-22.689-1.789-34.175zm949.141-97.063c-15.44-37.187-52.83-51.215-60.18-53.662-23.73-7.909-57.82-9.603-84.76 7.249-13.66-19.77-36.918-27.02-51.234-31.445-15.445-4.801-62.535-19.394-108.683 5.555-.754.376-1.601.847-2.543 1.318-4.05-3.295-8.382-6.025-12.903-7.908-4.049-1.695-14.88-6.308-27.5-2.825-28.254 7.72-40.686 48.956-46.148 87.743-9.042-68.914-23.734-80.588-35.035-82.282-9.23-1.412-17.235 4.895-23.168 10.638-3.579 3.483-7.158 7.438-10.643 11.768-13.279-22.877-61.876-36.622-64.325-37.375-7.534-2.071-30.325-8.473-111.132 4.895-76.756 12.616-99.642 25.325-107.176 29.562-20.061 11.203-57.45 31.915-58.58 64.865 0 1.601 0 3.39.188 5.273-7.911 12.332-13.091 24.948-17.046 34.551-1.601 3.86-3.014 7.625-4.238 11.391-10.643-19.582-21.85-38.599-37.107-44.342 2.825-8.567 3.484-17.323-.565-24.854-8.571-15.817-32.963-16.099-58.674-16.381-20.343-.283-50.01 1.412-99.454 16.287-45.583 13.745-68.375 20.617-89.377 39.352-12.902 11.486-43.134 38.411-40.215 76.634 1.601 21.747 13.845 47.919 37.296 57.334 20.72 8.285 45.018 2.824 64.042-12.71-7.158 19.018-13.562 38.317-18.93 57.711-28.913 102.806-20.155 159.01-7.629 188.101 6.028 13.934 14.221 32.951 29.478 34.457q1.837.141 3.673 0c20.155-1.977 41.628-35.775 65.644-103.182 3.484-9.886 6.687-19.865 9.512-30.033 2.072 27.585 8.853 40.765 16.01 49.709 16.576 20.617 31.08 24.101 40.498 23.253.282 0 .565 0 .847-.094 21.662-2.824 32.304-28.996 36.825-40.199 5.933-14.593 7.722-29.091 7.252-42.177 6.027 7.814 14.221 15.439 25.051 21.088 10.549 5.461 19.59 10.168 29.29 6.967 8.1-2.636 13.751-10.262 17.612-20.712 9.7 16.475 20.343 26.925 31.173 26.078h.283c15.257-1.506 24.581-23.442 30.891-42.365 3.673-11.015 4.897-21.559 4.803-30.879 3.767 5.46 8.005 10.544 12.526 15.345 12.714 13.275 50.009 45.001 69.034 32.763 21.755-13.934 1.413-76.352-11.867-104.407-11.584-24.478-27.783-46.602-48.314-65.713 15.916-14.122 27.877-31.35 34.941-50.273-.565 22.971 1.977 45.566 7.628 67.125 10.737 40.482 43.7 113.821 75.721 110.714.282 0 .659 0 .942-.094 6.969-1.036 13.373-5.555 19.118-13.557 6.028-8.379 11.019-20.241 14.786-34.08 2.92 25.419 8.288 45.472 15.54 55.922 3.579 5.084 7.628 7.908 12.055 8.379h2.26c13.656-1.318 26.559-26.078 36.542-56.205 2.072 2.636 4.238 5.272 6.498 7.72 3.862 4.142 35.224 37.093 62.065 34.457a28.7 28.7 0 0 0 8.759-2.259c19.872-8.85 24.298-38.6 23.921-53.098 0-2.354-.282-4.519-.471-6.684 10.925 12.333 23.828 21.747 38.237 20.9a30.3 30.3 0 0 0 8.571-1.789c12.243 12.521 27.029 23.066 42.381 30.22 21.473 9.886 43.417 12.522 63.665 10.545 19.401-1.883 37.201-7.908 51.517-15.534a129 129 0 0 0 21.382 17.887c23.82 15.817 47.09 22.595 69.41 20.524 6.31-.565 12.43-1.883 18.55-3.954 37.77-12.521 57.07-47.355 62.06-73.245 7.82-40.105-11.96-86.519-35.6-108.266-13.75-12.616-17.23-19.206-24.67-33.516-6.5-12.333-6.03-16.569-4.8-19.017 1.79-3.389 6.68-6.496 10.73-5.743 2.64.565 3.96 2.919 6.69 8.756 2.73 5.743 6.03 12.992 13.56 18.923 10.46 8.19 27.69 12.804 38.52 6.308 17.52-10.639 13-46.225 4.43-66.843z"/><path fill="#fff" d="M283.575 119.846c-7.063-12.992-28.442-13.463-54.436-13.84-24.11-.282-53.117 2.542-97.947 16.099-44.923 13.557-67.338 20.335-87.493 38.317-12.525 11.109-41.345 36.811-38.613 72.491 1.318 17.982 11.113 43.872 34.187 53.098 25.428 10.168 59.71-2.824 77.981-34.08-14.598 34.268-23.922 63.736-29.95 84.918-33.622 119.47-13.844 170.967-7.816 184.806 5.839 13.557 13.28 30.315 25.428 31.538 27.689 2.731 56.226-77.669 64.137-99.887 17.517-49.143 36.165-126.625 27.312-232.255 18.082-6.213 45.018-18.923 66.114-45.378 7.723-9.696 30.703-38.411 21.096-55.921z"/><path fill="#000" d="M108.118 558.089a24 24 0 0 1-3.673 0c-15.257-1.506-23.545-20.617-29.478-34.457-12.526-28.996-21.284-85.201 7.629-188.101a737 737 0 0 1 18.93-57.71c-19.119 15.533-43.417 20.994-64.137 12.709-23.356-9.32-35.505-35.492-37.2-57.24-2.92-38.128 27.312-65.148 40.214-76.634 21.002-18.734 43.794-25.607 89.377-39.352 49.444-14.969 79.111-16.57 99.454-16.287 25.805.282 50.103.659 58.674 16.381 11.113 20.429-12.62 50.179-21.568 61.382-16.387 20.43-38.142 35.775-64.701 45.661 6.498 82.753-2.92 160.328-27.877 230.56-23.922 67.313-45.489 101.205-65.644 103.182zm8.665-311.054c.942 0 1.789 0 2.731.471 2.355 1.13 3.391 3.954 2.355 6.402-11.679 27.584-21.756 55.922-29.761 84.353-21.944 78.046-24.864 142.535-8.1 181.511 4.71 11.015 11.867 27.585 21.379 28.526 8.947.848 28.348-10.544 58.957-96.592 24.863-69.95 33.999-147.431 27.029-230.184-.188-2.259 1.225-4.331 3.297-5.084 26.464-9.132 47.937-23.913 63.853-43.777 19.025-23.724 25.9-40.765 20.626-50.462-5.839-10.638-27.312-10.92-50.104-11.203-19.589-.282-48.314 1.318-96.44 15.911-44.17 13.368-66.302 20.052-85.61 37.281-11.772 10.544-39.46 35.21-36.918 68.443 1.036 13.934 8.759 39.917 31.08 48.861 24.11 9.697 55.66-4.33 71.859-32.009a5.12 5.12 0 0 1 3.767-2.448"/><path fill="#fff" d="M513.374 45.942C439.16 58.182 415.898 70.42 407.798 74.94c-19.495 10.827-55.001 30.597-56.037 60.723-.376 10.45 3.391 23.254 11.867 30.88 21.944 19.77 76.38 4.989 134.583-37.282-8.853 27.491-21.096 79.835-5.274 139.805 12.338 46.508 45.018 110.809 71.106 106.949 27.783-4.049 46.054-84.919 33.999-151.385-8.194-45.378-29.667-78.799-44.924-98.475 12.714 2.542 32.774 4.989 56.508 1.129 28.065-4.519 75.909-20.052 76.662-41.706.754-20.147-39.838-37.94-64.042-44.624-8.288-2.26-30.985-7.814-108.966 4.99z"/><path fill="#000" d="M563.76 381.003c-31.927 3.107-64.984-70.232-75.72-110.714-10.831-40.953-10.36-85.201 1.318-128.884-55.848 37.376-106.8 49.144-129.214 28.902-10.454-9.508-13.845-24.665-13.468-34.739 1.13-32.856 38.519-53.662 58.58-64.866 7.534-4.236 30.42-16.851 107.176-29.561 80.712-13.274 103.598-6.967 111.132-4.895 2.826.753 68.752 19.393 67.621 49.614-.941 27.584-58.674 42.836-80.806 46.413-15.163 2.448-30.608 2.636-46.054.753 19.778 28.149 32.775 58.558 38.614 90.756 9.324 51.591.848 115.986-19.024 143.57-5.745 8.003-12.15 12.521-19.119 13.557-.282 0-.659 0-.942.094zm-66.02-256.732a5.06 5.06 0 0 1 3.391.941c1.695 1.224 2.448 3.484 1.789 5.555-14.88 46.319-16.67 93.674-5.18 136.98 12.903 48.861 44.736 105.348 65.173 103.371h.47c5.18-.753 9.701-5.649 12.526-9.509 16.105-22.406 27.313-80.776 17.329-136.039-6.215-34.362-21.002-66.748-43.981-96.31-1.225-1.6-1.413-3.86-.283-5.648 1.13-1.789 3.108-2.636 5.18-2.26 18.365 3.672 36.824 4.048 54.718 1.13 30.044-4.801 71.954-20.335 72.519-36.999.565-15.628-34.941-32.668-60.369-39.729-6.97-1.977-28.254-7.814-106.895 5.084-49.821 8.19-84.856 17.793-103.974 28.432-18.365 10.261-52.552 29.279-53.494 56.486-.283 8.662 2.731 20.336 10.171 27.02 20.061 18.17 72.895 2.636 128.367-37.658.754-.565 1.601-.847 2.449-.941z"/><path fill="#fff" d="M387.644 443.798c-24.581 1.883-54.153-77.011-63.383-140.652-4.427-30.88-10.454-76.164 10.171-126.154 8.853-21.371 22.509-54.698 57.073-70.138 19.119-8.567 55.284-16.475 77.416 3.295 29.478 26.36 10.548 80.87 7.723 88.778-9.889 28.432-28.631 46.131-38.708 54.322 14.88 13.274 35.977 35.398 51.328 67.972 15.728 33.233 30.326 87.461 13.656 98.193-14.033 9.038-46.619-15.251-62.818-32.103-13.75-14.31-21.285-29.185-25.334-38.976 2.543 8.002 8.382 30.409-.377 56.393-3.391 10.073-12.714 37.94-26.935 39.07z"/><path fill="#000" d="M388.303 448.787h-.282c-30.326 2.354-59.804-84.165-68.657-144.794-4.144-28.62-11.019-76.446 10.548-128.79 8.758-21.088 23.262-56.487 59.616-72.774 24.015-10.732 60.086-16.193 82.784 4.143 28.819 25.795 16.01 74.374 9.135 94.144-6.969 19.959-19.307 38.129-35.882 52.815 20.531 19.206 36.73 41.236 48.314 65.713 13.279 28.055 33.622 90.473 11.866 104.407-2.354 1.506-5.085 2.353-7.911 2.636-20.06 1.977-50.009-23.819-61.122-35.493a122 122 0 0 1-12.526-15.345c0 9.32-1.13 19.77-4.803 30.879-6.31 19.017-15.634 40.953-30.891 42.365zm36.448-345.605c-11.961 1.13-23.357 4.708-31.174 8.285-32.68 14.687-45.865 46.508-54.53 67.502-20.531 49.802-13.844 95.933-9.889 123.518 9.795 67.69 39.65 137.827 58.015 136.415h.094c4.992-.471 12.903-7.155 22.509-35.681 7.629-22.877 3.485-43.212.283-53.38-.754-2.542.565-5.272 3.014-6.119 2.448-.942 5.274.282 6.31 2.73 5.839 14.122 14.032 26.737 24.298 37.47 18.93 19.77 47.184 37.375 56.602 31.35 12.055-7.72 1.601-55.734-15.445-91.885-11.773-24.949-28.631-47.261-50.198-66.372-1.036-.942-1.696-2.354-1.696-3.766s.66-2.824 1.79-3.766c17.329-14.122 30.232-32.197 37.201-52.062 4.803-13.933 18.742-61.006-6.404-83.412-11.208-9.979-26.559-12.145-40.969-10.733z"/><path fill="#fff" d="M1077.13 187.442c-6.31-12.051-7.44-18.547-4.8-23.537 2.73-5.272 9.89-9.508 16.11-8.284 10.45 2.071 8.85 17.981 22.41 28.62 9.04 7.155 24.02 11.297 32.87 5.931 14.22-8.567 10.83-40.577 2.45-60.723-14.98-36.246-51.9-49.144-57.17-50.839-26.28-8.66-67.24-9.696-93.708 17.323-3.202 3.2-24.204 25.419-21.096 55.922 2.542 25.513 20.437 41.988 26.084 47.261 18.65 17.134 28.82 11.203 45.68 28.431 2.45 2.448 27.78 28.997 18.18 49.144-3.68 7.625-12.91 15.722-21.95 14.592-14.22-1.694-14.31-24.666-39.83-44.342-7.822-6.025-13.849-10.732-21.76-10.356-17.518.847-32.21 25.796-36.165 45.754-7.535 37.847 19.966 77.199 50.009 97.158 9.606 6.307 43.986 29.185 83.636 16.004 33.99-11.297 53.68-43.024 58.76-69.478 7.16-36.717-10.07-81.624-34.09-103.654-14.41-13.274-18.18-20.429-25.71-34.833z"/><path fill="#000" d="M1061.12 404.069c-22.32 2.165-45.58-4.708-69.407-20.524-30.797-20.429-60.275-61.1-52.176-102.241 3.862-19.676 18.742-47.637 39.556-49.708h1.224c9.701-.471 16.764 4.989 24.953 11.391 13.66 10.544 20.54 22.124 25.53 30.597 4.8 8.002 7.44 12.239 11.86 12.804 6.22.753 13.94-5.649 16.86-11.862 8.2-17.229-16.2-42.46-17.23-43.589-7.91-8.097-13.94-10.45-20.91-13.275-6.97-2.824-14.79-5.931-24.581-14.969-6.216-5.648-24.958-22.971-27.689-50.367-3.108-30.974 16.481-53.663 22.509-59.876 27.971-28.62 70.731-27.867 98.791-18.547 7.35 2.448 44.74 16.476 60.18 53.663 8.57 20.712 13.1 56.298-4.42 66.843-10.83 6.495-28.07 1.977-38.52-6.308-7.54-5.931-10.93-13.086-13.56-18.923-2.73-5.837-4.05-8.191-6.69-8.756-3.96-.847-8.95 2.354-10.74 5.743-1.32 2.448-1.69 6.59 4.81 19.017 7.53 14.31 10.92 20.806 24.67 33.516 23.64 21.653 43.42 68.066 35.6 108.266-5.08 25.984-24.3 60.723-62.06 73.245-6.12 2.071-12.34 3.389-18.56 3.954zm-80.897-162.588c-13.656 1.318-27.124 22.783-30.891 41.706-6.969 35.022 18.836 72.774 47.938 92.073 27.88 18.453 54.53 23.631 79.3 15.346 31.55-10.45 50.57-40.576 55.47-65.713 7.16-36.716-10.92-79.176-32.59-99.04-15.06-13.839-19.21-21.748-26.74-36.152-5.84-11.203-8.95-20.241-4.81-28.149 3.49-6.778 12.53-12.615 21.48-10.827 7.81 1.601 10.83 8.003 13.65 14.216 2.45 5.366 5.09 10.827 10.74 15.346 7.63 6.025 20.44 9.697 27.31 5.554 10.55-6.402 8.95-34.08.38-54.604-13.75-33.233-47.47-45.848-54.15-48.013-25.43-8.38-63.86-9.227-88.628 16.098-3.767 3.86-22.509 24.572-19.777 51.968 2.354 23.631 19.024 38.976 24.585 44.06 8.47 7.814 14.88 10.356 21.56 13.086 7.35 2.919 14.98 6.025 24.3 15.534 5.09 5.178 29.86 32.197 19.12 54.698-4.62 9.603-15.92 18.735-27.03 17.417-9.42-1.13-13.94-8.756-19.21-17.511-4.9-8.191-10.93-18.453-23.077-27.773-7.44-5.743-12.432-9.603-18.459-9.32h-.659z"/><path fill="#fff" d="M1004.52 88.308c-11.771-21.371-34.751-28.809-51.421-33.987-15.822-4.895-60.557-18.734-104.822 5.178-13.185 7.155-40.309 21.748-48.691 53.569-5.745 21.935-1.789 48.672 13.939 66.654 27.312 31.256 81.936 26.737 81.654 29.373-.189 2.071-30.232-5.366-59.899 6.59-4.426 1.789-38.331 16.005-47.09 45.19-11.772 39.54 28.631 86.519 69.034 105.253 42.569 19.677 87.87 9.132 116.124-7.908 9.983-6.025 37.862-22.877 36.452-43.306-1.7-23.348-40.596-38.976-63.105-43.683-11.961-2.542-22.415-2.542-30.043-2.072 40.309-3.86 70.352-20.429 76.191-43.871 2.166-8.756.377-15.911 0-17.417-11.113-41.329-103.786-53.192-103.221-55.545.471-1.977 67.339 22.971 102.468-4.048 3.39-2.636 15.16-11.674 18.46-27.302 3.3-15.722-3.77-28.714-6.03-32.763z"/><path fill="#000" d="M918.818 381.192c-20.249 1.977-42.193-.565-63.666-10.544-44.547-20.618-83.914-70.138-71.67-111.185 9.135-30.503 43.228-45.66 49.915-48.297 5.18-2.071 10.36-3.577 15.351-4.707-13.938-4.142-28.254-11.297-38.99-23.442-15.728-18.076-21.568-45.942-14.975-71.173 8.947-33.892 37.484-49.332 51.14-56.675 46.054-24.854 93.144-10.356 108.683-5.555 15.446 4.802 41.345 12.804 54.244 36.34 6.78 12.333 8.95 24.572 6.5 36.152-2.45 11.579-9.32 21.747-20.246 30.22-12.244 9.415-27.784 12.992-43.229 13.557 21.19 8.849 40.686 21.841 45.771 40.765.754 2.918 2.354 10.638 0 19.864-4.52 17.888-21.378 32.292-46.43 40.671 22.98 5.554 61.684 21.37 63.574 47.354 1.69 23.442-27.786 41.236-38.805 47.92-15.163 9.132-35.129 16.569-57.073 18.641zm-55.755-167.013c-8.099.753-17.046 2.542-25.993 6.12-6.028 2.447-36.354 15.816-44.17 41.988-10.643 35.493 26.464 80.87 66.396 99.323 41.251 19.111 84.668 8.567 111.509-7.626 8.759-5.272 35.315-21.277 34.095-38.693-1.32-18.735-35.413-34.175-59.147-39.165-9.324-1.977-19.024-2.636-28.725-1.977-2.731.189-5.085-1.883-5.274-4.519-.188-2.73 1.79-5.083 4.427-5.366h.094c38.425-3.672 66.585-19.488 71.765-40.106 1.789-7.155.471-13.274 0-14.969-8.099-30.22-67.621-44.059-90.036-49.237-9.7-2.26-11.207-2.636-12.62-4.802-.659-1.129-.942-2.542-.659-3.86a4.78 4.78 0 0 1 2.26-3.106c2.166-1.318 3.673-.942 10.925.847 17.706 4.331 64.701 15.722 90.978-4.519 9.041-6.967 14.692-15.251 16.672-24.383 2.92-13.934-3.39-25.514-5.56-29.374-11.018-20.052-33.527-27.02-48.502-31.632-16.01-4.99-58.58-18.17-100.961 4.801-12.525 6.779-38.425 20.806-46.242 50.556-5.839 22.124-.753 46.507 12.809 62.135 19.589 22.501 55.283 25.325 70.54 26.455 7.158.565 9.324.753 11.114 2.824.847 1.036 1.318 2.542 1.13 3.86-.565 5.272-5.651 4.99-11.584 4.519-5.651-.376-14.787-1.035-25.335 0z"/><path fill="#fff" d="M740.442 376.578c-25.335 11.298-63.289-28.902-65.173-30.973-71.011-76.728-24.863-230.655 26.841-280.269 6.122-5.837 12.338-10.356 19.025-9.32 24.487 3.86 33.339 79.458 36.824 148.937-.188-7.438-2.825-141.029 46.431-154.492 11.019-3.012 20.719 1.13 24.298 2.636 55.755 23.725 63.666 163.341 14.127 249.013-17.988 31.068-31.833 34.834-38.896 35.21-24.864 1.507-45.96-33.515-58.957-54.886-16.01-26.549-23.262-51.309-26.747-67.784 9.324 29.749 19.307 52.532 26.747 67.784 9.701 19.864 16.105 29.373 16.576 45.754.471 16.57-5.274 41.424-21.002 48.485z"/><path fill="#000" d="M733.661 383.451c-26.841 2.636-58.203-30.315-62.065-34.457-32.68-35.304-44.641-90.191-33.904-154.491 8.947-53.004 33.339-106.29 60.84-132.744 5.933-5.743 13.938-12.051 23.168-10.639 11.301 1.789 25.994 13.463 35.035 82.283 5.462-38.788 17.894-80.023 46.148-87.743 12.714-3.483 23.451 1.13 27.5 2.824 17.329 7.343 31.08 25.137 39.838 51.309 19.872 59.405 9.795 147.431-23.356 204.765-14.221 24.477-28.16 36.904-42.852 37.752-14.409.847-27.312-8.568-38.237-20.9.283 2.165.471 4.33.471 6.684.377 14.498-4.144 44.248-23.922 53.097-2.825 1.318-5.839 1.977-8.758 2.26zM718.404 60.817c-3.485.377-7.535 2.919-12.903 8.002-49.444 47.355-95.593 198.834-26.559 273.397 10.266 11.109 41.063 38.128 59.522 29.843 12.338-5.554 18.553-26.737 18.082-43.777-.376-12.427-4.426-20.618-11.301-34.174-1.413-2.825-3.014-5.932-4.615-9.321-12.808-21.182-21.944-44.436-27.218-69.102-.565-2.542 1.036-5.178 3.579-5.837 2.637-.659 5.18.753 6.027 3.295 7.252 23.442 16.199 45.943 26.371 66.843 12.149 20.147 32.492 53.662 54.247 52.344 11.019-.659 22.698-11.674 34.941-32.762 31.927-55.075 41.628-139.617 22.603-196.668-7.817-23.442-19.683-39.07-34.375-45.284-3.203-1.318-11.679-4.99-21.097-2.448-36.824 10.074-44.076 102.242-42.757 149.596 0 2.731-2.072 4.99-4.803 5.084-2.732.094-4.992-1.977-5.18-4.707-6.028-122.106-22.98-142.818-32.587-144.324a6.3 6.3 0 0 0-1.883 0z"/><path fill="#fff" d="M647.486 92.168c-12.62-.283-22.697 36.998-29.573 62.512-29.478 109.019-15.351 235.455 8.853 237.903 19.025 1.883 44.171-72.585 51.234-130.108 10.172-82.282-11.301-169.93-30.514-170.307"/><path fill="#000" d="M628.556 397.479h-2.261c-4.426-.471-8.476-3.295-12.055-8.379-21.096-30.597-26.37-142.629-1.13-235.738 10.172-37.752 19.213-66.467 34.47-66.184 3.956 0 7.817 2.26 11.49 6.402 18.553 21.465 32.775 98.475 23.922 169.46-5.934 48.202-29.008 131.991-54.436 134.439m18.742-300.416c-.848 0-5.369 1.412-12.15 18.452-4.897 12.239-9.135 27.867-12.526 40.388-25.711 94.898-17.988 201.847-.282 227.548 1.695 2.542 3.485 4.048 4.897 4.142 3.391.377 12.997-7.531 24.958-39.54 9.418-25.231 17.423-58.276 20.908-86.237 8.947-71.926-7.064-144.983-21.567-161.74-2.355-2.73-3.768-2.919-4.144-3.013z"/><path fill="#fff" d="M240.064 492.941c-17.894 2.26-33.34-16.852-36.918-21.277-9.418-11.673-22.038-34.456-11.867-122.388 9.983-85.86 29.384-128.225 37.484-144.512 14.221-28.714 29.949-59.593 50.762-59.217 18.46.377 31.833 25.043 44.359 48.391 20.908 38.693 27.972 74.845 31.268 100.64.942 7.438 16.387 133.121-17.612 144.324-7.723 2.542-15.728-1.6-25.523-6.684-27.5-14.216-36.07-42.083-37.86-48.579 4.427 14.404 10.643 42.836-1.318 72.209-4.05 10.074-14.127 34.74-32.869 37.187z"/><path fill="#000" d="M239.782 497.931c-9.418.941-23.922-2.542-40.498-23.254-11.866-14.781-22.697-41.33-12.902-126.06 6.969-60.346 19.777-109.49 37.954-146.206 14.504-29.279 30.985-62.418 55.284-61.948 21.284.377 35.223 26.079 48.596 50.933 21.944 40.67 28.725 77.857 31.833 102.335 2.92 22.877 15.728 137.545-20.908 149.596-9.7 3.201-18.836-1.507-29.29-6.967-10.925-5.649-19.024-13.274-25.052-21.088.471 13.18-1.318 27.584-7.251 42.177-4.521 11.203-15.163 37.469-36.825 40.199-.282 0-.565 0-.847.094zm37.954-347.394c-17.329 1.695-32.304 31.915-44.453 56.393-17.706 35.68-30.137 83.694-36.918 142.911-10.643 92.074 4.332 110.714 10.736 118.717 11.113 13.839 22.698 20.711 32.398 19.488 15.916-2.072 25.334-25.325 28.913-34.081 10.077-24.76 6.781-49.332 1.884-66.372a65 65 0 0 1-.754-2.636c-.753-2.636.754-5.272 3.391-6.119 2.637-.753 5.368.659 6.122 3.295.282.847.565 1.694.753 2.636 3.39 10.732 12.62 31.632 34.658 43.024 8.947 4.613 15.916 8.191 21.661 6.308 22.604-7.438 20.908-87.178 14.222-138.958-3.014-23.724-9.513-59.688-30.703-98.852-11.49-21.276-24.581-45.472-40.121-45.754z"/><path fill="#fff" d="M270.296 249.013c-2.92-2.542-7.629-3.296-10.925-1.413-6.97 3.954-6.404 19.3-.283 22.407 3.579 1.789 8.853-.659 11.679-3.954 4.049-4.802 4.332-12.992-.471-17.04"/><path fill="#000" d="M262.95 275.561c-2.072.189-4.238-.094-6.216-1.129-5.274-2.636-7.346-9.415-7.44-14.875-.189-7.343 2.731-13.557 7.628-16.287 4.992-2.73 11.867-1.977 16.576 1.977 3.014 2.542 4.897 6.308 5.18 10.638.377 4.802-1.224 9.791-4.238 13.369-2.731 3.201-7.064 5.837-11.49 6.307m.094-24.006s-.942.188-1.224.376c-1.507.847-2.637 3.954-2.543 7.438 0 3.671 1.413 5.931 2.072 6.307.753.377 3.767-.565 5.651-2.73 1.318-1.6 2.072-3.954 1.883-6.119 0-.942-.377-2.731-1.789-3.86-1.036-.942-2.731-1.412-4.05-1.224z"/><path fill="#fff" d="M397.815 180.193c-4.05-3.766-10.737-4.143-14.975-.189-4.049 3.86-4.049 10.262-1.13 14.216 4.05 5.461 13.28 6.025 17.518.753 3.296-4.142 2.825-10.826-1.413-14.78"/><path fill="#000" d="M392.729 203.446h-2.072c-5.179-.094-9.983-2.541-12.808-6.401-4.615-6.308-3.861-15.44 1.695-20.712 5.839-5.555 15.634-5.461 21.756.188s6.969 15.346 1.883 21.559c-2.448 3.107-6.216 4.99-10.359 5.366zm-3.296-21.276c-1.13.094-2.26.565-3.108 1.412-2.166 2.071-2.072 5.649-.565 7.72 1.036 1.412 3.014 2.353 5.086 2.353 1.883 0 3.579-.659 4.52-1.788 1.601-1.883 1.507-5.743-.941-8.003-1.225-1.129-3.203-1.882-4.992-1.694"/><path fill="#fff" d="M655.114 40.294c-11.49-20.806-22.791-34.834-27.5-32.95-4.803 1.882-3.296 20.052 2.825 43.4-24.486-6.308-43.605-5.931-45.865 0s11.678 18.923 33.904 30.409c-18.459 15.722-29.666 30.691-26.37 35.68 3.296 5.084 22.038 1.036 44.924-10.167.565 2.636 9.23 41.235 16.952 40.67 5.369-.376 9.23-19.394 10.548-45.189 5.369 6.967 28.443 36.057 35.412 32.197 7.817-4.33-8.194-46.601-10.642-53.097 25.711-5.931 44.547-13.275 44.076-18.923-.565-5.649-20.908-9.509-48.597-10.545 2.731-6.59 17.329-42.082 10.454-46.319-7.534-4.613-36.259 30.22-40.026 34.834z"/><path fill="#000" d="M654.738 152.326h-.471c-3.202.282-11.302.847-20.72-38.505-14.692 6.684-39.178 15.722-45.583 5.743-6.121-9.415 10.454-26.926 21.944-37.47-12.149-6.967-34.375-21.56-29.949-33.139 4.332-11.391 29.761-7.814 43.794-4.895-8.571-37.093-.66-40.294 2.072-41.33 2.731-1.035 10.642-4.236 30.137 28.903 31.174-36.905 38.614-32.386 41.816-30.41 3.296 1.978 9.983 6.12-5.839 45.943 45.112 2.354 45.96 11.298 46.242 14.687.283 3.39 1.13 12.145-42.381 22.877 17.612 47.826 9.795 52.062 6.405 53.945-3.203 1.789-9.701 5.272-33.811-23.63-3.202 34.739-10.454 36.904-13.75 37.187zm-18.271-50.462c.848 0 1.789 0 2.637.471 1.413.659 2.355 1.883 2.637 3.389 3.485 15.911 8.382 30.503 11.584 35.493 1.884-4.048 4.803-15.157 6.122-39.258a4.84 4.84 0 0 1 3.485-4.425c1.977-.66 4.143 0 5.368 1.694 14.974 19.206 24.675 28.055 28.725 30.127.471-5.555-3.391-22.501-12.526-46.225-.471-1.318-.377-2.825.282-4.143.66-1.318 1.884-2.165 3.297-2.542 22.979-5.272 35.317-10.638 39.178-13.556-4.426-2.26-18.082-5.273-42.757-6.12-1.601 0-3.108-.941-3.956-2.26-.847-1.412-1.036-3.106-.377-4.612 9.23-22.124 12.055-34.834 11.961-39.447-5.18 2.448-17.988 14.498-33.151 32.95-1.036 1.224-2.637 1.978-4.238 1.79-1.601-.189-3.108-1.13-3.861-2.543-10.454-18.828-17.518-26.83-20.814-29.561-.565 4.237-.189 15.157 5.274 36.34.471 1.694 0 3.483-1.319 4.707-1.224 1.224-3.013 1.695-4.709 1.318-22.603-5.837-36.73-4.895-39.838-2.918 1.036 3.483 10.831 13.557 31.362 24.195 1.507.753 2.449 2.165 2.637 3.86s-.471 3.295-1.695 4.33c-17.8 15.063-24.393 25.608-25.146 29.091 3.861.847 17.423-1.506 38.237-11.674.565-.282 1.13-.376 1.695-.471z"/></svg>